<svg xmlns:ed="https://www.edrawsoft.cn//xml/2017/SVGExtensions/" ed:name="Page-1" xmlns:xlink="http://www.w3.org/1999/xlink" ed:hSpacing="30" id="page100" viewBox="0 0 744 1036" ed:vSpacing="30" xmlns="http://www.w3.org/2000/svg" xmlns:ev="http://www.w3.org/2001/xml-events" height="1036" width="744"><style type="text/css"><![CDATA[
g[ed\:togtopicid],g[ed\:hyperlink],g[ed\:comment],g[ed\:note] {cursor:pointer;}
g[id] {-moz-user-select: none;-ms-user-select: none;user-select: none;}
svg text::selection,svg tspan::selection{background-color: #4285f4;color: #ffffff;fill: #ffffff;}
.st3 {fill:#ffffff;font-family:Cascadia Code;font-size:10pt}
.st1 {fill:#ffffff;font-family:微软雅黑;font-size:10pt}
.st2 {font-family:Cascadia Code}
]]></style><defs><linearGradient x1="0%" x2="0%" y1="0%" y2="100%" id="lg1"><stop stop-color="#ffffff" offset="0"/><stop stop-color="#f0f5f0" offset="0.25"/><stop stop-color="#e1ebe1" offset="0.75"/><stop stop-color="#c8d7c8" offset="1"/></linearGradient></defs><rect y="0" x="0" fill="#1e242f" height="1036" width="744"/><path stroke="#e38d76" stroke-linejoin="round" id="657" ed:parentid="651,655" ed:type="summary" fill="none" ed:idlist="651,655" stroke-width="2" d="M0,0C0,0,5.2,-0.1,6.6,8.1C8,16.3,4.7,21.5,5.9,28C7,34.5,12,36,12,36C12,36,7.1,37.3,5.9,44C4.6,50.7,8,55.7,6.6,63.9C5.2,72.1,0,72,0,72" transform="matrix(1,0,0,1,494,25)"/><path stroke-linecap="round" stroke="#e38d76" stroke-linejoin="round" id="652" ed:parentid="653" ed:tosuperid="651" fill="none" stroke-width="2" d="M-13.5,3.1L3.7,3.1C3.7,-0.4,6.4,-3.1,9.7,-3.1L13.5,-3.1" transform="matrix(1,0,0,1,290,70)"/><path stroke-linecap="round" stroke="#e38d76" stroke-linejoin="round" id="654" ed:parentid="649" ed:tosuperid="653" fill="none" stroke-width="2" d="M-13.5,229.3L3.7,229.3L3.7,-223.3C3.7,-226.6,6.4,-229.3,9.7,-229.3L13.5,-229.3" transform="matrix(1,0,0,1,130,302)"/><path stroke-linecap="round" stroke="#e38d76" stroke-linejoin="round" id="656" ed:parentid="653" ed:tosuperid="655" fill="none" stroke-width="2" d="M3.7,-12.1L3.7,6.1C3.7,9.4,6.4,12.1,9.7,12.1L13.5,12.1" transform="matrix(1,0,0,1,290,85)"/><path stroke-linecap="round" stroke="#e38d76" stroke-linejoin="round" id="660" ed:parentid="649" ed:tosuperid="659" fill="none" stroke-width="2" d="M3.7,147.9L3.7,-141.9C3.7,-145.2,6.4,-147.9,9.7,-147.9L13.5,-147.9" transform="matrix(1,0,0,1,130,384)"/><path stroke-linecap="round" stroke="#e38d76" stroke-linejoin="round" id="662" ed:parentid="659" ed:tosuperid="661" fill="none" stroke-width="2" d="M-13.5,54.2L3.7,54.2L3.7,-48.2C3.7,-51.5,6.4,-54.2,9.7,-54.2L13.5,-54.2" transform="matrix(1,0,0,1,290,181)"/><path stroke-linecap="round" stroke="#e38d76" stroke-linejoin="round" id="664" ed:parentid="659" ed:tosuperid="663" fill="none" stroke-width="2" d="M3.7,39.1L3.7,-33.1C3.7,-36.4,6.4,-39.1,9.7,-39.1L13.5,-39.1" transform="matrix(1,0,0,1,290,197)"/><path stroke-linecap="round" stroke="#e38d76" stroke-linejoin="round" id="666" ed:parentid="659" ed:tosuperid="665" fill="none" stroke-width="2" d="M3.7,-39.1L3.7,33.1C3.7,36.4,6.4,39.1,9.7,39.1L13.5,39.1" transform="matrix(1,0,0,1,290,275)"/><path stroke-linecap="round" stroke="#e38d76" stroke-linejoin="round" id="669" ed:parentid="659" ed:tosuperid="668" fill="none" stroke-width="2" d="M3.7,-54.2L3.7,48.2C3.7,51.5,6.4,54.2,9.7,54.2L13.5,54.2" transform="matrix(1,0,0,1,290,290)"/><path stroke-linecap="round" stroke="#e38d76" stroke-linejoin="round" id="671" ed:parentid="649" ed:tosuperid="670" fill="none" stroke-width="2" d="M3.7,55.9L3.7,-49.9C3.7,-53.2,6.4,-55.9,9.7,-55.9L13.5,-55.9" transform="matrix(1,0,0,1,130,476)"/><path stroke-linecap="round" stroke="#e38d76" stroke-linejoin="round" id="675" ed:parentid="670" ed:tosuperid="674" fill="none" stroke-width="2" d="M-13.5,22.7L3.7,22.7L3.7,-16.7C3.7,-20,6.4,-22.7,9.7,-22.7L13.5,-22.7" transform="matrix(1,0,0,1,330,397)"/><path stroke-linecap="round" stroke="#e38d76" stroke-linejoin="round" id="677" ed:parentid="670" ed:tosuperid="676" fill="none" stroke-width="2" d="M3.7,7.6L3.7,-1.6C3.7,-4.9,6.4,-7.6,9.7,-7.6L13.5,-7.6" transform="matrix(1,0,0,1,330,412)"/><path stroke-linecap="round" stroke="#e38d76" stroke-linejoin="round" id="679" ed:parentid="670" ed:tosuperid="678" fill="none" stroke-width="2" d="M3.7,-7.6L3.7,1.6C3.7,4.9,6.4,7.6,9.7,7.6L13.5,7.6" transform="matrix(1,0,0,1,330,427)"/><path stroke-linecap="round" stroke="#e38d76" stroke-linejoin="round" id="681" ed:parentid="670" ed:tosuperid="680" fill="none" stroke-width="2" d="M3.7,-22.7L3.7,16.7C3.7,20,6.4,22.7,9.7,22.7L13.5,22.7" transform="matrix(1,0,0,1,330,442)"/><path stroke-linecap="round" stroke="#e38d76" stroke-linejoin="round" id="683" ed:parentid="649" ed:tosuperid="682" fill="none" stroke-width="2" d="M3.7,3C3.7,-0.3,6.4,-3,9.7,-3L13.5,-3" transform="matrix(1,0,0,1,130,529)"/><path stroke-linecap="round" stroke="#e38d76" stroke-linejoin="round" id="685" ed:parentid="682" ed:tosuperid="684" fill="none" stroke-width="2" d="M-13.5,15.1L3.7,15.1L3.7,-9.1C3.7,-12.4,6.4,-15.1,9.7,-15.1L13.5,-15.1" transform="matrix(1,0,0,1,314,510)"/><path stroke-linecap="round" stroke="#e38d76" stroke-linejoin="round" id="687" ed:parentid="682" ed:tosuperid="686" fill="none" stroke-width="2" d="M3.7,0C3.7,0,6.4,0,9.7,0L13.5,0" transform="matrix(1,0,0,1,314,526)"/><path stroke-linecap="round" stroke="#e38d76" stroke-linejoin="round" id="689" ed:parentid="682" ed:tosuperid="688" fill="none" stroke-width="2" d="M3.7,-15.1L3.7,9.1C3.7,12.4,6.4,15.1,9.7,15.1L13.5,15.1" transform="matrix(1,0,0,1,314,541)"/><path stroke-linecap="round" stroke="#e38d76" stroke-linejoin="round" id="691" ed:parentid="649" ed:tosuperid="690" fill="none" stroke-width="2" d="M3.7,-42.4L3.7,36.4C3.7,39.7,6.4,42.4,9.7,42.4L13.5,42.4" transform="matrix(1,0,0,1,130,574)"/><path stroke-linecap="round" stroke="#e38d76" stroke-linejoin="round" id="693" ed:parentid="690" ed:tosuperid="692" fill="none" stroke-width="2" d="M-13.5,15.1L3.7,15.1L3.7,-9.1C3.7,-12.4,6.4,-15.1,9.7,-15.1L13.5,-15.1" transform="matrix(1,0,0,1,237,601)"/><path stroke-linecap="round" stroke="#e38d76" stroke-linejoin="round" id="695" ed:parentid="690" ed:tosuperid="694" fill="none" stroke-width="2" d="M3.7,0C3.7,0,6.4,0,9.7,0L13.5,0" transform="matrix(1,0,0,1,236,616)"/><path stroke-linecap="round" stroke="#e38d76" stroke-linejoin="round" id="697" ed:parentid="690" ed:tosuperid="696" fill="none" stroke-width="2" d="M3.7,-15.1L3.7,9.1C3.7,12.4,6.4,15.1,9.7,15.1L13.5,15.1" transform="matrix(1,0,0,1,237,631)"/><path stroke-linecap="round" stroke="#e38d76" stroke-linejoin="round" id="699" ed:parentid="649" ed:tosuperid="698" fill="none" stroke-width="2" d="M3.7,-87.8L3.7,81.8C3.7,85.1,6.4,87.8,9.7,87.8L13.5,87.8" transform="matrix(1,0,0,1,130,619)"/><path stroke-linecap="round" stroke="#e38d76" stroke-linejoin="round" id="701" ed:parentid="698" ed:tosuperid="700" fill="none" stroke-width="2" d="M-13.5,15.1L3.7,15.1L3.7,-9.1C3.7,-12.4,6.4,-15.1,9.7,-15.1L13.5,-15.1" transform="matrix(1,0,0,1,263,692)"/><path stroke-linecap="round" stroke="#e38d76" stroke-linejoin="round" id="703" ed:parentid="698" ed:tosuperid="702" fill="none" stroke-width="2" d="M3.7,0C3.7,0,6.4,0,9.7,0L13.5,0" transform="matrix(1,0,0,1,263,707)"/><path stroke-linecap="round" stroke="#e38d76" stroke-linejoin="round" id="705" ed:parentid="698" ed:tosuperid="704" fill="none" stroke-width="2" d="M3.7,-15.1L3.7,9.1C3.7,12.4,6.4,15.1,9.7,15.1L13.5,15.1" transform="matrix(1,0,0,1,263,722)"/><path stroke-linecap="round" stroke="#e38d76" stroke-linejoin="round" id="707" ed:parentid="649" ed:tosuperid="706" fill="none" stroke-width="2" d="M3.7,-135.8L3.7,129.8C3.7,133.1,6.4,135.8,9.7,135.8L13.5,135.8" transform="matrix(1,0,0,1,130,667)"/><path stroke-linecap="round" stroke="#e38d76" stroke-linejoin="round" id="709" ed:parentid="706" ed:tosuperid="708" fill="none" stroke-width="2" d="M-13.5,17.8L3.7,17.8L3.7,-11.8C3.7,-15.1,6.4,-17.8,9.7,-17.8L13.5,-17.8" transform="matrix(1,0,0,1,236,785)"/><path stroke-linecap="round" stroke="#e38d76" stroke-linejoin="round" id="711" ed:parentid="706" ed:tosuperid="710" fill="none" stroke-width="2" d="M3.7,-17.8L3.7,11.8C3.7,15.1,6.4,17.8,9.7,17.8L13.5,17.8" transform="matrix(1,0,0,1,237,821)"/><path stroke-linecap="round" stroke="#e38d76" stroke-linejoin="round" id="714" ed:parentid="649" ed:tosuperid="713" fill="none" stroke-width="2" d="M3.7,-175.8L3.7,169.8C3.7,173.1,6.4,175.8,9.7,175.8L13.5,175.8" transform="matrix(1,0,0,1,130,707)"/><path stroke-linecap="round" stroke="#e38d76" stroke-linejoin="round" id="716" ed:parentid="713" ed:tosuperid="715" fill="none" stroke-width="2" d="M-13.5,7.1L3.7,7.1L3.7,-1.1C3.7,-4.4,6.4,-7.1,9.7,-7.1L13.5,-7.1" transform="matrix(1,0,0,1,237,876)"/><path stroke-linecap="round" stroke="#e38d76" stroke-linejoin="round" id="718" ed:parentid="713" ed:tosuperid="717" fill="none" stroke-width="2" d="M3.7,-7.1L3.7,1.1C3.7,4.4,6.4,7.1,9.7,7.1L13.5,7.1" transform="matrix(1,0,0,1,237,890)"/><path stroke-linecap="round" stroke="#e38d76" stroke-linejoin="round" id="720" ed:parentid="649" ed:tosuperid="719" fill="none" stroke-width="2" d="M3.7,-219.7L3.7,213.7C3.7,217,6.4,219.7,9.7,219.7L13.5,219.7" transform="matrix(1,0,0,1,130,751)"/><path stroke-linecap="round" stroke="#e38d76" stroke-linejoin="round" id="722" ed:parentid="719" ed:tosuperid="721" fill="none" stroke-width="2" d="M-13.5,21.7L3.7,21.7L3.7,-15.7C3.7,-19,6.4,-21.7,9.7,-21.7L13.5,-21.7" transform="matrix(1,0,0,1,376,949)"/><path stroke-linecap="round" stroke="#e38d76" stroke-linejoin="round" id="724" ed:parentid="719" ed:tosuperid="723" fill="none" stroke-width="2" d="M3.7,6.6L3.7,-0.6C3.7,-3.9,6.4,-6.6,9.7,-6.6L13.5,-6.6" transform="matrix(1,0,0,1,376,964)"/><path stroke-linecap="round" stroke="#e38d76" stroke-linejoin="round" id="726" ed:parentid="719" ed:tosuperid="725" fill="none" stroke-width="2" d="M3.7,-7.6L3.7,1.6C3.7,4.9,6.4,7.6,9.7,7.6L13.5,7.6" transform="matrix(1,0,0,1,376,978)"/><path stroke-linecap="round" stroke="#e38d76" stroke-linejoin="round" id="730" ed:parentid="719" ed:tosuperid="729" fill="none" stroke-width="2" d="M3.7,-21.7L3.7,15.7C3.7,19,6.4,21.7,9.7,21.7L13.5,21.7" transform="matrix(1,0,0,1,376,993)"/><g ed:width="206.6666666666667" ed:height="35" id="667" ed:parentid="665" ed:layout="rightmap" ed:topictype="callout" transform="matrix(1,0,0,1,515,218)"><path stroke="#e38d76" stroke-linejoin="round" fill="none" stroke-width="2" d="M4,0L202.7,0C205.4,0,206.7,1.3,206.7,4L206.7,31C206.7,33.7,205.4,35,202.7,35L4,35C1.3,35,0,33.7,0,31L0,28.3C0,25.6,-1.2,23.7,-3.6,22.5L-6,21.3C-8.4,20.1,-8.4,18.9,-6,17.6L-3.5,16.2C-1.2,14.9,0,13,0,10.3L0,4C0,1.3,1.3,0,4,0z"/><text class="st1"><tspan style="white-space:pre" y="21.3" x="14">MPI_Op 是预定义全局运算符</tspan></text></g><g ed:width="236" ed:height="35" id="712" ed:parentid="710" ed:layout="rightmap" ed:topictype="callout" transform="matrix(1,0,0,1,250,774)"><path stroke="#e38d76" stroke-linejoin="round" fill="none" stroke-width="2" d="M4,0L232,0C234.7,0,236,1.3,236,4L236,31C236,33.7,234.7,35,232,35L108.2,35C105.5,35,102.9,35.3,100.3,36L76.3,42C73.7,42.7,73.3,42.1,75.2,40.1L77.3,37.9C79.2,35.9,78.8,35,76.1,35L4,35C1.3,35,0,33.7,0,31L0,4C0,1.3,1.3,0,4,0z"/><text class="st1"><tspan style="white-space:pre" class="st2" y="21.3" x="14">send_count</tspan><tspan style="white-space:pre"> 是每个分量的数据量</tspan></text></g><g ed:width="94.66666666666667" ed:height="23.75" id="649" ed:layout="rightmap" ed:topictype="drilltop" transform="matrix(1,0,0,1,22,508)"><path stroke="#e38d76" stroke-linejoin="round" fill="none" stroke-width="2" d="M0,23.8L94.7,23.8"/><text class="st1"><tspan style="white-space:pre" y="15.3" x="8">3.4 集合通信</tspan></text></g><g ed:width="186" ed:height="41.75" id="651" ed:parentid="653" transform="matrix(1,0,0,1,303,25)"><path stroke="#e38d76" stroke-linejoin="round" fill="none" stroke-width="2" d="M0,41.8L186,41.8"/><text class="st1"><tspan style="white-space:pre" y="15.3" x="8">我们之前向进程0进行汇总，</tspan><tspan style="white-space:pre" y="33.3" x="8">其他进程将会闲置</tspan></text></g><g ed:width="132.6666666666667" ed:height="23.75" id="653" ed:parentid="649" transform="matrix(1,0,0,1,144,49)"><path stroke="#e38d76" stroke-linejoin="round" fill="none" stroke-width="2" d="M0,23.8L132.7,23.8"/><text class="st1"><tspan style="white-space:pre" y="15.3" x="8">3.4.1 树形结构通信</tspan></text></g><g ed:width="164.6666666666667" ed:height="23.75" id="655" ed:parentid="653" transform="matrix(1,0,0,1,303,73)"><path stroke="#e38d76" stroke-linejoin="round" fill="none" stroke-width="2" d="M0,23.8L164.7,23.8"/><text class="st1"><tspan style="white-space:pre" y="15.3" x="8">使用树形归并，效率更高</tspan></text></g><g ed:width="157.7066666666667" ed:height="29" id="658" ed:parentid="657" ed:layout="rightmap" transform="matrix(1,0,0,1,515,47)"><path stroke="#e38d76" stroke-linejoin="round" fill="none" stroke-width="2" d="M14.5,0L143.2,0C151.2,0,157.7,6.5,157.7,14.5C157.7,22.5,151.2,29,143.2,29L14.5,29C6.5,29,0,22.5,0,14.5C0,6.5,6.5,0,14.5,0z"/><text class="st1"><tspan style="white-space:pre" y="18.3" x="13">O(n) 降低为 O(log n)</tspan></text></g><g ed:width="132.6666666666667" ed:height="23.75" id="659" ed:parentid="649" transform="matrix(1,0,0,1,144,212)"><path stroke="#e38d76" stroke-linejoin="round" fill="none" stroke-width="2" d="M0,23.8L132.7,23.8"/><text class="st1"><tspan style="white-space:pre" y="15.3" x="8">3.4.2 </tspan><tspan style="white-space:pre" class="st2">MPI_Reduce</tspan></text></g><g ed:width="271.3333333333333" ed:height="23.75" id="661" ed:parentid="659" transform="matrix(1,0,0,1,303,104)"><path stroke="#e38d76" stroke-linejoin="round" fill="none" stroke-width="2" d="M0,23.8L271.3,23.8"/><text class="st1"><tspan style="white-space:pre" y="15.3" x="8">集合通信：设计通信子所有进程的通信函数</tspan></text></g><g ed:width="344.6666666666667" ed:height="23.75" id="663" ed:parentid="659" transform="matrix(1,0,0,1,303,134)"><path stroke="#e38d76" stroke-linejoin="round" fill="none" stroke-width="2" d="M0,23.8L344.7,23.8"/><text class="st1"><tspan style="white-space:pre" class="st2" y="15.3" x="8">MPI_Send</tspan><tspan style="white-space:pre"> 和 </tspan><tspan style="white-space:pre" class="st2">MPI_Recv</tspan><tspan style="white-space:pre"> 称为点对点通信（单点通信）</tspan></text></g><g ed:width="202" ed:height="149.75" id="665" ed:parentid="659" transform="matrix(1,0,0,1,303,164)"><path stroke="#e38d76" stroke-linejoin="round" fill="none" stroke-width="2" d="M0,149.8L202,149.8"/><text class="st3"><tspan style="white-space:pre" y="14.3" x="8">int MPI_Reduce(</tspan><tspan style="white-space:pre" y="30.3" x="8">    void *input_p,</tspan><tspan style="white-space:pre" y="46.3" x="8">    void *output_p,</tspan><tspan style="white-space:pre" y="62.3" x="8">    int count,</tspan><tspan style="white-space:pre" y="78.3" x="8">    MPI_Datatype dtype,</tspan><tspan style="white-space:pre" y="94.3" x="8">    MPI_Op operator,</tspan><tspan style="white-space:pre" y="110.3" x="8">    int dest_process,</tspan><tspan style="white-space:pre" y="126.3" x="8">    MPI_Comm comm</tspan><tspan style="white-space:pre" y="142.3" x="8">)</tspan></text></g><g ed:width="196.6666666666667" ed:height="23.75" id="668" ed:parentid="659" transform="matrix(1,0,0,1,303,320)"><path stroke="#e38d76" stroke-linejoin="round" fill="none" stroke-width="2" d="M0,23.8L196.7,23.8"/><text class="st1"><tspan style="white-space:pre" y="15.3" x="8">支持向量运算（</tspan><tspan style="white-space:pre" class="st2">count > 1</tspan><tspan style="white-space:pre">）</tspan></text></g><g ed:width="172.6666666666667" ed:height="23.75" id="670" ed:parentid="649" transform="matrix(1,0,0,1,144,396)"><path stroke="#e38d76" stroke-linejoin="round" fill="none" stroke-width="2" d="M0,23.8L172.7,23.8"/><text class="st1"><tspan style="white-space:pre" y="15.3" x="8">3.4.3 集合通信与单点通信</tspan></text></g><g ed:width="284.6666666666667" ed:height="23.75" id="674" ed:parentid="670" transform="matrix(1,0,0,1,343,351)"><path stroke="#e38d76" stroke-linejoin="round" fill="none" stroke-width="2" d="M0,23.8L284.7,23.8"/><text class="st1"><tspan style="white-space:pre" y="15.3" x="8">通信子所有进程必须调用相同的通信集合函数</tspan></text></g><g ed:width="336.6666666666667" ed:height="23.75" id="676" ed:parentid="670" transform="matrix(1,0,0,1,343,381)"><path stroke="#e38d76" stroke-linejoin="round" fill="none" stroke-width="2" d="M0,23.8L336.7,23.8"/><text class="st1"><tspan style="white-space:pre" y="15.3" x="8">每个进程传递给MPI集合通信函数的参数必须是相容的</tspan></text></g><g ed:width="274" ed:height="23.75" id="678" ed:parentid="670" transform="matrix(1,0,0,1,343,411)"><path stroke="#e38d76" stroke-linejoin="round" fill="none" stroke-width="2" d="M0,23.8L274,23.8"/><text class="st1"><tspan style="white-space:pre" y="15.3" x="8">参数 </tspan><tspan style="white-space:pre" class="st2">output_p</tspan><tspan style="white-space:pre"> 只用在 </tspan><tspan style="white-space:pre" class="st2">dest_process</tspan><tspan style="white-space:pre"> 上</tspan></text></g><g ed:width="378" ed:height="23.75" id="680" ed:parentid="670" transform="matrix(1,0,0,1,343,441)"><path stroke="#e38d76" stroke-linejoin="round" fill="none" stroke-width="2" d="M0,23.8L378,23.8"/><text class="st1"><tspan style="white-space:pre" y="15.3" x="8">集合通信函数不使用标签，只通过通信子和调用顺序进行匹配</tspan></text></g><g ed:width="156.6666666666667" ed:height="23.75" id="682" ed:parentid="649" transform="matrix(1,0,0,1,144,502)"><path stroke="#e38d76" stroke-linejoin="round" fill="none" stroke-width="2" d="M0,23.8L156.7,23.8"/><text class="st1"><tspan style="white-space:pre" y="15.3" x="8">3.4.4 </tspan><tspan style="white-space:pre" class="st2">MPI_Allreduce</tspan></text></g><g ed:width="164.6666666666667" ed:height="23.75" id="684" ed:parentid="682" transform="matrix(1,0,0,1,327,472)"><path stroke="#e38d76" stroke-linejoin="round" fill="none" stroke-width="2" d="M0,23.8L164.7,23.8"/><text class="st1"><tspan style="white-space:pre" y="15.3" x="8">让所有进程获得计算结果</tspan></text></g><g ed:width="125.3333333333333" ed:height="23.75" id="686" ed:parentid="682" transform="matrix(1,0,0,1,327,502)"><path stroke="#e38d76" stroke-linejoin="round" fill="none" stroke-width="2" d="M0,23.8L125.3,23.8"/><text class="st1"><tspan style="white-space:pre" y="15.3" x="8">反树状 / 蝶形通信</tspan></text></g><g ed:width="292.6666666666667" ed:height="23.75" id="688" ed:parentid="682" transform="matrix(1,0,0,1,327,532)"><path stroke="#e38d76" stroke-linejoin="round" fill="none" stroke-width="2" d="M0,23.8L292.7,23.8"/><text class="st1"><tspan style="white-space:pre" y="15.3" x="8">与 </tspan><tspan style="white-space:pre" class="st2">MPI_Reduce</tspan><tspan style="white-space:pre"> 类似，但不需要指定目标进程</tspan></text></g><g ed:width="79.33333333333333" ed:height="23.75" id="690" ed:parentid="649" transform="matrix(1,0,0,1,144,593)"><path stroke="#e38d76" stroke-linejoin="round" fill="none" stroke-width="2" d="M0,23.8L79.3,23.8"/><text class="st1"><tspan style="white-space:pre" y="15.3" x="8">3.4.5 广播</tspan></text></g><g ed:width="84.66666666666667" ed:height="23.75" id="692" ed:parentid="690" transform="matrix(1,0,0,1,250,562)"><path stroke="#e38d76" stroke-linejoin="round" fill="none" stroke-width="2" d="M0,23.8L84.7,23.8"/><text class="st1"><tspan style="white-space:pre" y="15.3" x="8">反树状结构</tspan></text></g><g ed:width="218" ed:height="23.75" id="694" ed:parentid="690" transform="matrix(1,0,0,1,250,593)"><path stroke="#e38d76" stroke-linejoin="round" fill="none" stroke-width="2" d="M0,23.8L218,23.8"/><text class="st1"><tspan style="white-space:pre" y="15.3" x="8">将数据发送到通信子中的所有进程</tspan></text></g><g ed:width="120.6666666666667" ed:height="23.75" id="696" ed:parentid="690" transform="matrix(1,0,0,1,250,623)"><path stroke="#e38d76" stroke-linejoin="round" fill="none" stroke-width="2" d="M0,23.8L120.7,23.8"/><text class="st1"><tspan style="white-space:pre" y="15.3" x="8">使用 </tspan><tspan style="white-space:pre" class="st2">MPI_Bcast</tspan></text></g><g ed:width="106" ed:height="23.75" id="698" ed:parentid="649" transform="matrix(1,0,0,1,144,683)"><path stroke="#e38d76" stroke-linejoin="round" fill="none" stroke-width="2" d="M0,23.8L106,23.8"/><text class="st1"><tspan style="white-space:pre" y="15.3" x="8">3.4.6 数据分发</tspan></text></g><g ed:width="58" ed:height="23.75" id="700" ed:parentid="698" transform="matrix(1,0,0,1,277,653)"><path stroke="#e38d76" stroke-linejoin="round" fill="none" stroke-width="2" d="M0,23.8L58,23.8"/><text class="st1"><tspan style="white-space:pre" y="15.3" x="8">块划分</tspan></text></g><g ed:width="71.33333333333334" ed:height="23.75" id="702" ed:parentid="698" transform="matrix(1,0,0,1,277,683)"><path stroke="#e38d76" stroke-linejoin="round" fill="none" stroke-width="2" d="M0,23.8L71.3,23.8"/><text class="st1"><tspan style="white-space:pre" y="15.3" x="8">循环划分</tspan></text></g><g ed:width="117.3333333333333" ed:height="23.75" id="704" ed:parentid="698" transform="matrix(1,0,0,1,277,714)"><path stroke="#e38d76" stroke-linejoin="round" fill="none" stroke-width="2" d="M0,23.8L117.3,23.8"/><text class="st1"><tspan style="white-space:pre" y="15.3" x="8">块-循环混合划分</tspan></text></g><g ed:width="79.33333333333333" ed:height="23.75" id="706" ed:parentid="649" transform="matrix(1,0,0,1,144,779)"><path stroke="#e38d76" stroke-linejoin="round" fill="none" stroke-width="2" d="M0,23.8L79.3,23.8"/><text class="st1"><tspan style="white-space:pre" y="15.3" x="8">3.4.7 散射</tspan></text></g><g ed:width="178" ed:height="23.75" id="708" ed:parentid="706" transform="matrix(1,0,0,1,250,744)"><path stroke="#e38d76" stroke-linejoin="round" fill="none" stroke-width="2" d="M0,23.8L178,23.8"/><text class="st1"><tspan style="white-space:pre" y="15.3" x="8">仅发送相应分量到其他进程</tspan></text></g><g ed:width="106" ed:height="21.75" id="710" ed:parentid="706" transform="matrix(1,0,0,1,250,817)"><path stroke="#e38d76" stroke-linejoin="round" fill="none" stroke-width="2" d="M0,21.8L106,21.8"/><text class="st3"><tspan style="white-space:pre" y="14.3" x="8">MPI_Scatter</tspan></text></g><g ed:width="79.33333333333333" ed:height="23.75" id="713" ed:parentid="649" transform="matrix(1,0,0,1,144,859)"><path stroke="#e38d76" stroke-linejoin="round" fill="none" stroke-width="2" d="M0,23.8L79.3,23.8"/><text class="st1"><tspan style="white-space:pre" y="15.3" x="8">3.4.8 聚集</tspan></text></g><g ed:width="124.6666666666667" ed:height="23.75" id="715" ed:parentid="713" transform="matrix(1,0,0,1,250,845)"><path stroke="#e38d76" stroke-linejoin="round" fill="none" stroke-width="2" d="M0,23.8L124.7,23.8"/><text class="st1"><tspan style="white-space:pre" y="15.3" x="8">汇集分量进行打印</tspan></text></g><g ed:width="98" ed:height="21.75" id="717" ed:parentid="713" transform="matrix(1,0,0,1,250,876)"><path stroke="#e38d76" stroke-linejoin="round" fill="none" stroke-width="2" d="M0,21.8L98,21.8"/><text class="st3"><tspan style="white-space:pre" y="14.3" x="8">MPI_Gather</tspan></text></g><g ed:width="218.6666666666667" ed:height="23.75" id="719" ed:parentid="649" transform="matrix(1,0,0,1,144,947)"><path stroke="#e38d76" stroke-linejoin="round" fill="none" stroke-width="2" d="M0,23.8L218.7,23.8"/><text class="st1"><tspan style="white-space:pre" y="15.3" x="8">3.4.9 全局聚集（矩阵-向量乘法）</tspan></text></g><g ed:width="240" ed:height="23.75" id="721" ed:parentid="719" transform="matrix(1,0,0,1,389,904)"><path stroke="#e38d76" stroke-linejoin="round" fill="none" stroke-width="2" d="M0,23.8L240,23.8"/><text class="st1"><tspan style="white-space:pre" y="15.3" x="8">C一般使用一位向量“模拟”二维矩阵</tspan></text></g><g ed:width="164.6666666666667" ed:height="23.75" id="723" ed:parentid="719" transform="matrix(1,0,0,1,389,934)"><path stroke="#e38d76" stroke-linejoin="round" fill="none" stroke-width="2" d="M0,23.8L164.7,23.8"/><text class="st1"><tspan style="white-space:pre" y="15.3" x="8">每一行首尾相接连在一起</tspan></text></g><g ed:width="226" ed:height="21.75" id="725" ed:parentid="719" transform="matrix(1,0,0,1,389,964)"><path stroke="#e38d76" stroke-linejoin="round" fill="none" stroke-width="2" d="M0,21.8L226,21.8"/><text class="st3"><tspan style="white-space:pre" y="14.3" x="8">a[i][j] = *(a + n * i + j)</tspan></text></g><g ed:width="122" ed:height="21.75" id="729" ed:parentid="719" transform="matrix(1,0,0,1,389,993)"><path stroke="#e38d76" stroke-linejoin="round" fill="none" stroke-width="2" d="M0,21.8L122,21.8"/><text class="st3"><tspan style="white-space:pre" y="14.3" x="8">MPI_Allgather</tspan></text></g><g ed:togtopicid="649" transform="translate(118,514)"><use xlink:href="#minus"/></g><g ed:togtopicid="653" transform="translate(277,55)"><use xlink:href="#minus"/></g><g ed:togtopicid="659" transform="translate(277,218)"><use xlink:href="#minus"/></g><g ed:togtopicid="670" transform="translate(317,402)"><use xlink:href="#minus"/></g><g ed:togtopicid="682" transform="translate(301,508)"><use xlink:href="#minus"/></g><g ed:togtopicid="690" transform="translate(224,598)"><use xlink:href="#minus"/></g><g ed:togtopicid="698" transform="translate(251,689)"><use xlink:href="#minus"/></g><g ed:togtopicid="706" transform="translate(224,785)"><use xlink:href="#minus"/></g><g ed:togtopicid="713" transform="translate(224,865)"><use xlink:href="#minus"/></g><g ed:togtopicid="719" transform="translate(363,953)"><use xlink:href="#minus"/></g><symbol id="plus"><path fill="url(#lg1)" d="M11,6C11,8.8,8.8,11,6,11C3.2,11,1,8.8,1,6C1,3.2,3.2,1,6,1C8.8,1,11,3.2,11,6z"/><path stroke="#46a000" fill="none" stroke-width="0.7" d="M11,6C11,8.8,8.8,11,6,11C3.2,11,1,8.8,1,6C1,3.2,3.2,1,6,1C8.8,1,11,3.2,11,6zM3,6L9,6M6,3L6,9"/></symbol><symbol id="minus"><path fill="url(#lg1)" d="M11,6C11,8.8,8.8,11,6,11C3.2,11,1,8.8,1,6C1,3.2,3.2,1,6,1C8.8,1,11,3.2,11,6z"/><path stroke="#46a000" fill="none" stroke-width="0.7" d="M11,6C11,8.8,8.8,11,6,11C3.2,11,1,8.8,1,6C1,3.2,3.2,1,6,1C8.8,1,11,3.2,11,6zM3,6L9,6"/></symbol></svg>